<svg xmlns="http://www.w3.org/2000/svg" width="512" height="512" enable-background="new 0 0 512 512" viewBox="0 0 512 512" id="bird"><rect width="12" height="13.988" x="343.734" y="146.929"></rect><path d="M395.553,140.875c-5.44-14.28-16.825-25.725-31.987-31.214c-21.591-7.813-45.035-1.466-59.729,16.172l-57.02,68.435
		L133.452,330.329l-34.071,41.207L74.655,401.44h12.746c45.532,0,89.624-10.43,129.336-29.896l58.044,0.004c0.004,0,0.005,0,0.009,0
		c0.894,0,1.784-0.014,2.675-0.032v34.12h38.985v-12h-26.985v-22.946c27.648-3.232,53.24-15.566,73.225-35.549
		c23.481-23.48,36.413-54.699,36.413-87.907v-59.958l38.242-22.171L395.553,140.875z M213.904,359.544
		c-8.919,4.48-18.07,8.491-27.424,11.998c-27.304,10.234-56.304,16.246-86.088,17.603l14.559-17.607l9.921-11.999h-0.137
		l17.874-21.452L251.6,206.268h0.838h119.067L304.58,287.21C279.288,317.799,248.354,342.236,213.904,359.544z M387.103,247.234
		c0,30.001-11.684,58.208-32.898,79.421c-21.214,21.212-49.414,32.894-79.414,32.893c-0.002,0-0.007,0-0.009,0l-36.021-0.002
		c28.134-16.929,53.559-38.676,75.067-64.689l73.274-88.622V247.234z M387.103,194.268H262.436l50.619-60.753
		c13.864-16.64,33.075-17.404,46.426-12.569c13.354,4.833,27.622,17.716,27.622,39.374V194.268z M399.173,156.845l14.246,8.26
		l-14.246,8.259V156.845z"></path></svg>