<svg xmlns="http://www.w3.org/2000/svg" data-name="Layer 9" viewBox="0 0 32 32" id="ozone-layer"><path fill="#ff94cc" d="M29,16a5.951,5.951,0,0,0-1.552-4.006A3.959,3.959,0,0,0,28,10a4,4,0,0,0-5.533-3.693,7.976,7.976,0,0,0-12.933,0,3.981,3.981,0,0,0-4.982,5.687,5.948,5.948,0,0,0,0,8.012A3.959,3.959,0,0,0,4,22a4,4,0,0,0,5.533,3.693,7.976,7.976,0,0,0,12.933,0,3.981,3.981,0,0,0,4.982-5.687A5.951,5.951,0,0,0,29,16Z"></path><path fill="#fff" d="M14,5a8,8,0,0,1,6.47,3.31A3.909,3.909,0,0,1,22,8a3.973,3.973,0,0,1,3.45,5.99A5.984,5.984,0,0,1,27,18a4.185,4.185,0,0,0,.45,2.01,5.962,5.962,0,0,0,0-8.02A3.973,3.973,0,0,0,24,6a3.909,3.909,0,0,0-1.53.31,7.978,7.978,0,0,0-12.94,0C9.06,6.11,11.34,5,14,5Z"></path><path fill="#a239ea" d="M30,16a6.948,6.948,0,0,0-1.371-4.141A4.846,4.846,0,0,0,29,10a5,5,0,0,0-6.181-4.858,8.972,8.972,0,0,0-13.639,0A5,5,0,0,0,3,10a4.846,4.846,0,0,0,.371,1.859,6.939,6.939,0,0,0,0,8.282A4.846,4.846,0,0,0,3,22a5,5,0,0,0,6.181,4.858,8.972,8.972,0,0,0,13.639,0A5,5,0,0,0,29,22a4.846,4.846,0,0,0-.371-1.859A6.948,6.948,0,0,0,30,16Zm-3.294,3.335a1,1,0,0,0-.123,1.172A2.951,2.951,0,0,1,27,22a3,3,0,0,1-3,3,2.968,2.968,0,0,1-1.148-.23,1,1,0,0,0-1.194.336,6.976,6.976,0,0,1-11.314,0,1,1,0,0,0-1.194-.336A2.968,2.968,0,0,1,8,25a3,3,0,0,1-3-3,2.951,2.951,0,0,1,.417-1.493,1,1,0,0,0-.123-1.172,4.945,4.945,0,0,1,0-6.67,1,1,0,0,0,.123-1.172A2.951,2.951,0,0,1,5,10,3,3,0,0,1,8,7a2.968,2.968,0,0,1,1.148.23,1,1,0,0,0,1.194-.336,6.976,6.976,0,0,1,11.314,0,1,1,0,0,0,1.194.336A2.968,2.968,0,0,1,24,7a3,3,0,0,1,3,3,2.951,2.951,0,0,1-.417,1.493,1,1,0,0,0,.123,1.172A4.945,4.945,0,0,1,26.706,19.335Z"></path><path fill="#a239ea" d="M15 10a4 4 0 00-4 4v4a4 4 0 008 0V14A4 4 0 0015 10zm2 8a2 2 0 01-4 0V14a2 2 0 014 0v4zM21.5 16.5h-1a.5.5 0 000 1h1a.5.5 0 010 1h-1a.5.5 0 000 1h1a.5.5 0 010 1h-1a.5.5 0 000 1h1A1.5 1.5 0 0022.617 19 1.5 1.5 0 0021.5 16.5z"></path></svg>